<mxfile host="app.diagrams.net" modified="2023-10-03T09:22:59.078Z" agent="Mozilla/5.0 (Windows NT 10.0; Win64; x64) AppleWebKit/537.36 (KHTML, like Gecko) Chrome/117.0.0.0 Safari/537.36" etag="CFNuUnyC7TuMqa_C7qxA" version="22.0.1" type="device">
  <diagram id="C5RBs43oDa-KdzZeNtuy" name="Page-1">
    <mxGraphModel dx="1244" dy="531" grid="1" gridSize="10" guides="1" tooltips="1" connect="1" arrows="1" fold="1" page="1" pageScale="1" pageWidth="827" pageHeight="1169" math="0" shadow="0">
      <root>
        <mxCell id="WIyWlLk6GJQsqaUBKTNV-0" />
        <mxCell id="WIyWlLk6GJQsqaUBKTNV-1" parent="WIyWlLk6GJQsqaUBKTNV-0" />
        <mxCell id="WIyWlLk6GJQsqaUBKTNV-2" value="" style="rounded=0;html=1;jettySize=auto;orthogonalLoop=1;fontSize=11;endArrow=block;endFill=0;endSize=8;strokeWidth=1;shadow=0;labelBackgroundColor=none;edgeStyle=orthogonalEdgeStyle;" parent="WIyWlLk6GJQsqaUBKTNV-1" source="WIyWlLk6GJQsqaUBKTNV-3" target="WIyWlLk6GJQsqaUBKTNV-6" edge="1">
          <mxGeometry relative="1" as="geometry" />
        </mxCell>
        <mxCell id="oO30A3qHdIfHsy0nOibO-7" style="edgeStyle=orthogonalEdgeStyle;rounded=0;orthogonalLoop=1;jettySize=auto;html=1;" edge="1" parent="WIyWlLk6GJQsqaUBKTNV-1" source="WIyWlLk6GJQsqaUBKTNV-3" target="oO30A3qHdIfHsy0nOibO-8">
          <mxGeometry relative="1" as="geometry">
            <mxPoint x="274" y="410" as="targetPoint" />
          </mxGeometry>
        </mxCell>
        <mxCell id="WIyWlLk6GJQsqaUBKTNV-3" value="Software" style="rounded=1;whiteSpace=wrap;html=1;fontSize=12;glass=0;strokeWidth=1;shadow=0;" parent="WIyWlLk6GJQsqaUBKTNV-1" vertex="1">
          <mxGeometry x="364" y="390" width="120" height="40" as="geometry" />
        </mxCell>
        <mxCell id="WIyWlLk6GJQsqaUBKTNV-5" value="" style="edgeStyle=orthogonalEdgeStyle;rounded=0;html=1;jettySize=auto;orthogonalLoop=1;fontSize=11;endArrow=block;endFill=0;endSize=8;strokeWidth=1;shadow=0;labelBackgroundColor=none;" parent="WIyWlLk6GJQsqaUBKTNV-1" source="WIyWlLk6GJQsqaUBKTNV-6" target="WIyWlLk6GJQsqaUBKTNV-7" edge="1">
          <mxGeometry y="10" relative="1" as="geometry">
            <mxPoint as="offset" />
          </mxGeometry>
        </mxCell>
        <mxCell id="WIyWlLk6GJQsqaUBKTNV-6" value="Easy to use" style="rhombus;whiteSpace=wrap;html=1;shadow=0;fontFamily=Helvetica;fontSize=12;align=center;strokeWidth=1;spacing=6;spacingTop=-4;" parent="WIyWlLk6GJQsqaUBKTNV-1" vertex="1">
          <mxGeometry x="374" y="480" width="100" height="80" as="geometry" />
        </mxCell>
        <mxCell id="oO30A3qHdIfHsy0nOibO-4" style="edgeStyle=orthogonalEdgeStyle;rounded=0;orthogonalLoop=1;jettySize=auto;html=1;" edge="1" parent="WIyWlLk6GJQsqaUBKTNV-1" source="WIyWlLk6GJQsqaUBKTNV-7" target="oO30A3qHdIfHsy0nOibO-5">
          <mxGeometry relative="1" as="geometry">
            <mxPoint x="724" y="520" as="targetPoint" />
          </mxGeometry>
        </mxCell>
        <mxCell id="WIyWlLk6GJQsqaUBKTNV-7" value="Customer has to put some numbers on there" style="rounded=1;whiteSpace=wrap;html=1;fontSize=12;glass=0;strokeWidth=1;shadow=0;" parent="WIyWlLk6GJQsqaUBKTNV-1" vertex="1">
          <mxGeometry x="524" y="470" width="120" height="100" as="geometry" />
        </mxCell>
        <mxCell id="oO30A3qHdIfHsy0nOibO-5" value="and software is doing all the hard work" style="rounded=0;whiteSpace=wrap;html=1;" vertex="1" parent="WIyWlLk6GJQsqaUBKTNV-1">
          <mxGeometry x="684" y="490" width="120" height="60" as="geometry" />
        </mxCell>
        <mxCell id="oO30A3qHdIfHsy0nOibO-10" style="edgeStyle=orthogonalEdgeStyle;rounded=0;orthogonalLoop=1;jettySize=auto;html=1;" edge="1" parent="WIyWlLk6GJQsqaUBKTNV-1" source="oO30A3qHdIfHsy0nOibO-8" target="oO30A3qHdIfHsy0nOibO-11">
          <mxGeometry relative="1" as="geometry">
            <mxPoint x="194" y="550" as="targetPoint" />
          </mxGeometry>
        </mxCell>
        <mxCell id="oO30A3qHdIfHsy0nOibO-22" style="edgeStyle=orthogonalEdgeStyle;rounded=0;orthogonalLoop=1;jettySize=auto;html=1;" edge="1" parent="WIyWlLk6GJQsqaUBKTNV-1" source="oO30A3qHdIfHsy0nOibO-8" target="oO30A3qHdIfHsy0nOibO-23">
          <mxGeometry relative="1" as="geometry">
            <mxPoint x="140" y="410" as="targetPoint" />
          </mxGeometry>
        </mxCell>
        <mxCell id="oO30A3qHdIfHsy0nOibO-24" style="edgeStyle=orthogonalEdgeStyle;rounded=0;orthogonalLoop=1;jettySize=auto;html=1;" edge="1" parent="WIyWlLk6GJQsqaUBKTNV-1" source="oO30A3qHdIfHsy0nOibO-8" target="oO30A3qHdIfHsy0nOibO-25">
          <mxGeometry relative="1" as="geometry">
            <mxPoint x="220" y="250" as="targetPoint" />
          </mxGeometry>
        </mxCell>
        <mxCell id="oO30A3qHdIfHsy0nOibO-8" value="Functioning" style="rounded=0;whiteSpace=wrap;html=1;" vertex="1" parent="WIyWlLk6GJQsqaUBKTNV-1">
          <mxGeometry x="214" y="380" width="120" height="60" as="geometry" />
        </mxCell>
        <mxCell id="oO30A3qHdIfHsy0nOibO-12" style="edgeStyle=orthogonalEdgeStyle;rounded=0;orthogonalLoop=1;jettySize=auto;html=1;" edge="1" parent="WIyWlLk6GJQsqaUBKTNV-1" source="oO30A3qHdIfHsy0nOibO-11" target="oO30A3qHdIfHsy0nOibO-13">
          <mxGeometry relative="1" as="geometry">
            <mxPoint x="44" y="670" as="targetPoint" />
          </mxGeometry>
        </mxCell>
        <mxCell id="oO30A3qHdIfHsy0nOibO-14" style="edgeStyle=orthogonalEdgeStyle;rounded=0;orthogonalLoop=1;jettySize=auto;html=1;" edge="1" parent="WIyWlLk6GJQsqaUBKTNV-1" source="oO30A3qHdIfHsy0nOibO-11" target="oO30A3qHdIfHsy0nOibO-15">
          <mxGeometry relative="1" as="geometry">
            <mxPoint x="194" y="640" as="targetPoint" />
          </mxGeometry>
        </mxCell>
        <mxCell id="oO30A3qHdIfHsy0nOibO-16" style="edgeStyle=orthogonalEdgeStyle;rounded=0;orthogonalLoop=1;jettySize=auto;html=1;" edge="1" parent="WIyWlLk6GJQsqaUBKTNV-1" source="oO30A3qHdIfHsy0nOibO-11" target="oO30A3qHdIfHsy0nOibO-17">
          <mxGeometry relative="1" as="geometry">
            <mxPoint x="194" y="630" as="targetPoint" />
          </mxGeometry>
        </mxCell>
        <mxCell id="oO30A3qHdIfHsy0nOibO-18" style="edgeStyle=orthogonalEdgeStyle;rounded=0;orthogonalLoop=1;jettySize=auto;html=1;" edge="1" parent="WIyWlLk6GJQsqaUBKTNV-1" source="oO30A3qHdIfHsy0nOibO-11" target="oO30A3qHdIfHsy0nOibO-19">
          <mxGeometry relative="1" as="geometry">
            <mxPoint x="54" y="490" as="targetPoint" />
          </mxGeometry>
        </mxCell>
        <mxCell id="oO30A3qHdIfHsy0nOibO-20" style="edgeStyle=orthogonalEdgeStyle;rounded=0;orthogonalLoop=1;jettySize=auto;html=1;" edge="1" parent="WIyWlLk6GJQsqaUBKTNV-1" source="oO30A3qHdIfHsy0nOibO-11" target="oO30A3qHdIfHsy0nOibO-21">
          <mxGeometry relative="1" as="geometry">
            <mxPoint x="323.9999999999999" y="620" as="targetPoint" />
          </mxGeometry>
        </mxCell>
        <mxCell id="oO30A3qHdIfHsy0nOibO-11" value="Software is listing all the workers and give to the client next informations" style="rounded=0;whiteSpace=wrap;html=1;" vertex="1" parent="WIyWlLk6GJQsqaUBKTNV-1">
          <mxGeometry x="134" y="520" width="120" height="60" as="geometry" />
        </mxCell>
        <mxCell id="oO30A3qHdIfHsy0nOibO-13" value="name" style="ellipse;whiteSpace=wrap;html=1;aspect=fixed;" vertex="1" parent="WIyWlLk6GJQsqaUBKTNV-1">
          <mxGeometry x="24" y="590" width="60" height="60" as="geometry" />
        </mxCell>
        <mxCell id="oO30A3qHdIfHsy0nOibO-15" value="age" style="ellipse;whiteSpace=wrap;html=1;aspect=fixed;" vertex="1" parent="WIyWlLk6GJQsqaUBKTNV-1">
          <mxGeometry x="94" y="590" width="60" height="60" as="geometry" />
        </mxCell>
        <mxCell id="oO30A3qHdIfHsy0nOibO-17" value="PersonID" style="ellipse;whiteSpace=wrap;html=1;aspect=fixed;" vertex="1" parent="WIyWlLk6GJQsqaUBKTNV-1">
          <mxGeometry x="214" y="590" width="60" height="60" as="geometry" />
        </mxCell>
        <mxCell id="oO30A3qHdIfHsy0nOibO-19" value="Salary" style="ellipse;whiteSpace=wrap;html=1;aspect=fixed;" vertex="1" parent="WIyWlLk6GJQsqaUBKTNV-1">
          <mxGeometry x="24" y="465" width="55" height="55" as="geometry" />
        </mxCell>
        <mxCell id="oO30A3qHdIfHsy0nOibO-21" value="Address" style="ellipse;whiteSpace=wrap;html=1;aspect=fixed;" vertex="1" parent="WIyWlLk6GJQsqaUBKTNV-1">
          <mxGeometry x="284" y="590" width="60" height="60" as="geometry" />
        </mxCell>
        <mxCell id="oO30A3qHdIfHsy0nOibO-23" value="Calculate all the expenses automatically to the client" style="whiteSpace=wrap;html=1;aspect=fixed;" vertex="1" parent="WIyWlLk6GJQsqaUBKTNV-1">
          <mxGeometry x="54" y="310" width="80" height="80" as="geometry" />
        </mxCell>
        <mxCell id="oO30A3qHdIfHsy0nOibO-25" value="have feature that you can change workers information&amp;nbsp;" style="rhombus;whiteSpace=wrap;html=1;" vertex="1" parent="WIyWlLk6GJQsqaUBKTNV-1">
          <mxGeometry x="60" y="130" width="200" height="160" as="geometry" />
        </mxCell>
      </root>
    </mxGraphModel>
  </diagram>
</mxfile>
